<?xml version="1.0" encoding="utf-8"?>
<!-- Generator: Adobe Illustrator 16.0.3, SVG Export Plug-In . SVG Version: 6.00 Build 0)  -->
<!DOCTYPE svg PUBLIC "-//W3C//DTD SVG 1.1//EN" "http://www.w3.org/Graphics/SVG/1.1/DTD/svg11.dtd">
<svg version="1.1" id="Layer_1" xmlns="http://www.w3.org/2000/svg" xmlns:xlink="http://www.w3.org/1999/xlink" x="0px" y="0px"
	 width="23.709px" height="23.709px" viewBox="0 0 23.709 23.709" enable-background="new 0 0 23.709 23.709" xml:space="preserve">
<g>
	<path fill="#FFFFFF" d="M10.896,0.724c0.528-0.965,1.391-0.965,1.919,0l2.638,4.82c0.527,0.965,1.748,2.187,2.713,2.714l4.82,2.637
		c0.965,0.528,0.965,1.391,0,1.919l-4.82,2.637c-0.965,0.528-2.187,1.75-2.713,2.715l-2.638,4.819c-0.528,0.966-1.391,0.966-1.919,0
		l-2.637-4.819c-0.528-0.965-1.749-2.187-2.715-2.715l-4.82-2.637c-0.965-0.528-0.965-1.391,0-1.919l4.82-2.637
		C6.51,7.731,7.731,6.51,8.259,5.544L10.896,0.724z"/>
</g>
</svg>
