<?xml version="1.0" encoding="utf-8"?>
<!-- Generator: Adobe Illustrator 16.0.3, SVG Export Plug-In . SVG Version: 6.00 Build 0)  -->
<!DOCTYPE svg PUBLIC "-//W3C//DTD SVG 1.1//EN" "http://www.w3.org/Graphics/SVG/1.1/DTD/svg11.dtd">
<svg version="1.1" id="Layer_1" xmlns="http://www.w3.org/2000/svg" xmlns:xlink="http://www.w3.org/1999/xlink" x="0px" y="0px"
	 width="34px" height="34px" viewBox="3 3 34 34" enable-background="new 3 3 34 34" xml:space="preserve">
<rect x="-131.898" y="173.096" width="530.973" height="275.986"/>
<path display="none" fill="#191717" d="M19.999,4.113c-8.995,0-16.289,7.293-16.289,16.291c0,7.196,4.667,13.302,11.141,15.456
	c0.814,0.149,1.112-0.354,1.112-0.784c0-0.388-0.014-1.411-0.022-2.771c-4.531,0.983-5.487-2.185-5.487-2.185
	c-0.741-1.882-1.809-2.384-1.809-2.384c-1.479-1.01,0.112-0.989,0.112-0.989c1.635,0.114,2.495,1.679,2.495,1.679
	c1.453,2.489,3.813,1.771,4.741,1.354c0.148-1.054,0.569-1.771,1.034-2.179c-3.617-0.41-7.42-1.809-7.42-8.051
	c0-1.778,0.635-3.232,1.677-4.371c-0.167-0.412-0.727-2.068,0.16-4.311c0,0,1.368-0.438,4.479,1.67
	c1.299-0.361,2.693-0.542,4.078-0.548c1.383,0.006,2.776,0.187,4.078,0.548c3.11-2.108,4.476-1.67,4.476-1.67
	c0.889,2.243,0.329,3.899,0.161,4.311c1.044,1.139,1.675,2.593,1.675,4.371c0,6.258-3.81,7.635-7.438,8.038
	c0.585,0.503,1.106,1.497,1.106,3.017c0,2.179-0.021,3.936-0.021,4.47c0,0.436,0.293,0.942,1.12,0.782
	c6.467-2.157,11.13-8.26,11.13-15.454C36.29,11.406,28.996,4.113,19.999,4.113z"/>
<g display="none">
	<path display="inline" fill="#191717" d="M218.711-44.473c-33.348,0-60.388,27.035-60.388,60.388
		c0,26.681,17.303,49.315,41.297,57.302c3.019,0.559,4.126-1.311,4.126-2.904c0-1.439-0.057-6.197-0.082-11.244
		c-16.801,3.654-20.346-7.125-20.346-7.125c-2.746-6.979-6.705-8.836-6.705-8.836c-5.479-3.748,0.414-3.67,0.414-3.67
		c6.063,0.426,9.257,6.224,9.257,6.224c5.386,9.231,14.127,6.563,17.573,5.021c0.541-3.902,2.105-6.567,3.834-8.076
		c-13.414-1.525-27.515-6.705-27.515-29.844c0-6.593,2.359-11.979,6.224-16.209c-0.627-1.521-2.694-7.663,0.584-15.98
		c0,0,5.072-1.622,16.611,6.191c4.816-1.338,9.982-2.009,15.114-2.033c5.132,0.023,10.302,0.694,15.128,2.033
		c11.526-7.813,16.59-6.191,16.59-6.191c3.287,8.318,1.221,14.46,0.594,15.98c3.871,4.229,6.215,9.616,6.215,16.209
		c0,23.194-14.127,28.301-27.574,29.797c2.166,1.873,4.096,5.549,4.096,11.183c0,8.079-0.068,14.583-0.068,16.571
		c0,1.607,1.086,3.49,4.146,2.897c23.98-7.994,41.264-30.622,41.264-57.294C279.1-17.438,252.063-44.473,218.711-44.473z"/>
	<path display="inline" fill="#191717" d="M181.195,42.23c-0.133,0.301-0.605,0.391-1.035,0.185
		c-0.438-0.197-0.684-0.606-0.542-0.907c0.13-0.309,0.603-0.395,1.04-0.188C181.098,41.518,181.348,41.93,181.195,42.23
		L181.195,42.23z"/>
	<path display="inline" fill="#191717" d="M183.643,44.959c-0.289,0.268-0.853,0.143-1.233-0.279
		c-0.396-0.421-0.47-0.984-0.177-1.255c0.297-0.267,0.843-0.142,1.238,0.279C183.865,44.13,183.941,44.688,183.643,44.959
		L183.643,44.959z"/>
	<path display="inline" fill="#191717" d="M186.021,48.438c-0.369,0.258-0.976,0.017-1.35-0.521c-0.37-0.537-0.37-1.182,0.01-1.439
		c0.373-0.258,0.971-0.024,1.35,0.508C186.4,47.529,186.4,48.174,186.021,48.438L186.021,48.438z"/>
	<path display="inline" fill="#191717" d="M189.284,51.797c-0.331,0.365-1.036,0.268-1.552-0.23
		c-0.528-0.486-0.676-1.178-0.344-1.543c0.336-0.365,1.045-0.264,1.563,0.23C189.479,50.74,189.637,51.436,189.284,51.797
		L189.284,51.797z"/>
	<path display="inline" fill="#191717" d="M193.784,53.748c-0.146,0.473-0.825,0.688-1.509,0.486
		c-0.685-0.207-1.131-0.762-0.992-1.238c0.142-0.477,0.824-0.7,1.513-0.485C193.479,52.717,193.926,53.268,193.784,53.748
		L193.784,53.748z"/>
	<path display="inline" fill="#191717" d="M198.727,54.109c0.018,0.498-0.563,0.91-1.281,0.92c-0.721,0.017-1.307-0.387-1.313-0.877
		c0-0.504,0.567-0.911,1.289-0.924C198.139,53.215,198.727,53.615,198.727,54.109L198.727,54.109z"/>
	<path display="inline" fill="#191717" d="M203.325,53.327c0.086,0.485-0.413,0.983-1.126,1.116c-0.701,0.13-1.35-0.172-1.439-0.652
		c-0.087-0.498,0.422-0.997,1.121-1.126C202.596,52.541,203.234,52.833,203.325,53.327L203.325,53.327z"/>
</g>
<g>
	<g>
		<line fill="none" stroke="#1981BC" stroke-linecap="round" stroke-miterlimit="10" x1="93" y1="-50.406" x2="93" y2="-49.906"/>
		
			<line fill="none" stroke="#1981BC" stroke-linecap="round" stroke-miterlimit="10" stroke-dasharray="0.9999,1.9999" x1="93" y1="-47.906" x2="93" y2="86.087"/>
		<line fill="none" stroke="#1981BC" stroke-linecap="round" stroke-miterlimit="10" x1="93" y1="87.087" x2="93" y2="87.587"/>
	</g>
</g>
<g>
	<path fill="#0072BC" d="M1.378,101.604c-0.38-0.276-0.866-0.414-1.458-0.414c-0.24,0-0.476,0.023-0.708,0.07
		c-0.232,0.049-0.438,0.129-0.618,0.24c-0.18,0.113-0.324,0.264-0.432,0.451S-2,102.373-2,102.652c0,0.264,0.078,0.479,0.234,0.643
		c0.156,0.164,0.364,0.298,0.624,0.4c0.26,0.104,0.554,0.19,0.882,0.26c0.328,0.066,0.662,0.143,1.002,0.221
		c0.34,0.08,0.674,0.176,1.002,0.283c0.328,0.107,0.622,0.254,0.882,0.438c0.26,0.185,0.468,0.416,0.624,0.695
		c0.156,0.281,0.234,0.633,0.234,1.057c0,0.457-0.102,0.847-0.306,1.17c-0.204,0.324-0.466,0.589-0.786,0.793
		c-0.32,0.203-0.678,0.353-1.074,0.443c-0.396,0.092-0.79,0.139-1.182,0.139c-0.48,0-0.934-0.061-1.362-0.18
		c-0.428-0.121-0.804-0.303-1.128-0.547s-0.58-0.557-0.768-0.937s-0.282-0.829-0.282-1.351h1.08c0,0.36,0.07,0.67,0.21,0.93
		c0.14,0.262,0.324,0.475,0.552,0.643s0.494,0.293,0.798,0.373c0.304,0.08,0.616,0.119,0.936,0.119c0.256,0,0.514-0.023,0.774-0.072
		c0.26-0.047,0.494-0.129,0.702-0.246c0.208-0.115,0.376-0.273,0.504-0.473c0.128-0.201,0.192-0.457,0.192-0.77
		c0-0.295-0.078-0.535-0.234-0.72c-0.156-0.184-0.364-0.334-0.624-0.45c-0.26-0.115-0.554-0.209-0.882-0.281
		s-0.662-0.146-1.002-0.224c-0.34-0.075-0.674-0.163-1.002-0.264s-0.623-0.231-0.882-0.396c-0.259-0.166-0.468-0.377-0.624-0.637
		c-0.156-0.26-0.234-0.586-0.234-0.979c0-0.433,0.088-0.807,0.264-1.123c0.176-0.314,0.41-0.574,0.702-0.779
		c0.292-0.203,0.624-0.355,0.996-0.455c0.372-0.102,0.754-0.15,1.146-0.15c0.44,0,0.848,0.054,1.224,0.156
		c0.376,0.104,0.706,0.268,0.99,0.492c0.284,0.225,0.508,0.506,0.672,0.846s0.254,0.746,0.27,1.219h-1.08
		C1.979,102.324,1.758,101.879,1.378,101.604z"/>
	<path fill="#0072BC" d="M5.656,102.797v0.912H5.68c0.464-0.705,1.132-1.057,2.004-1.057c0.384,0,0.732,0.08,1.044,0.24
		c0.312,0.159,0.532,0.432,0.66,0.815c0.208-0.336,0.482-0.597,0.822-0.78c0.34-0.185,0.714-0.275,1.122-0.275
		c0.312,0,0.594,0.033,0.846,0.102c0.252,0.068,0.468,0.176,0.648,0.318c0.18,0.145,0.32,0.33,0.42,0.559s0.15,0.502,0.15,0.822V109
		h-1.02v-4.066c0-0.192-0.017-0.373-0.048-0.541c-0.031-0.168-0.092-0.313-0.18-0.438c-0.088-0.125-0.21-0.223-0.366-0.295
		c-0.156-0.072-0.358-0.107-0.606-0.107c-0.504,0-0.9,0.145-1.188,0.432c-0.288,0.289-0.432,0.673-0.432,1.152V109h-1.02v-4.066
		c0-0.201-0.018-0.385-0.054-0.553s-0.098-0.314-0.186-0.438c-0.088-0.125-0.206-0.221-0.354-0.289
		c-0.148-0.067-0.338-0.102-0.57-0.102c-0.296,0-0.55,0.061-0.762,0.18c-0.212,0.121-0.384,0.265-0.516,0.433
		c-0.132,0.168-0.228,0.342-0.288,0.522c-0.06,0.18-0.09,0.33-0.09,0.449V109h-1.02v-6.203H5.656z"/>
	<path fill="#0072BC" d="M19.696,109.133c-0.264,0-0.474-0.074-0.63-0.223c-0.156-0.146-0.234-0.391-0.234-0.727
		c-0.28,0.336-0.606,0.578-0.978,0.727s-0.774,0.223-1.206,0.223c-0.28,0-0.544-0.029-0.792-0.09s-0.466-0.16-0.654-0.301
		s-0.336-0.319-0.444-0.539c-0.108-0.221-0.162-0.486-0.162-0.799c0-0.353,0.06-0.641,0.18-0.863
		c0.12-0.225,0.278-0.406,0.474-0.547s0.42-0.246,0.672-0.318c0.252-0.07,0.51-0.131,0.774-0.18c0.28-0.057,0.546-0.098,0.798-0.125
		c0.252-0.028,0.474-0.068,0.666-0.121c0.192-0.051,0.344-0.127,0.456-0.229c0.112-0.101,0.168-0.246,0.168-0.438
		c0-0.223-0.042-0.402-0.126-0.539s-0.192-0.24-0.324-0.313c-0.132-0.073-0.28-0.121-0.444-0.146
		c-0.164-0.022-0.326-0.035-0.486-0.035c-0.432,0-0.792,0.082-1.08,0.246c-0.288,0.164-0.444,0.474-0.468,0.931h-1.02
		c0.016-0.385,0.096-0.709,0.24-0.974c0.144-0.264,0.336-0.478,0.576-0.642c0.24-0.163,0.516-0.282,0.828-0.354
		c0.312-0.071,0.64-0.106,0.984-0.106c0.28,0,0.558,0.02,0.834,0.061c0.276,0.039,0.526,0.121,0.75,0.246
		c0.224,0.123,0.404,0.298,0.54,0.521c0.136,0.225,0.204,0.516,0.204,0.875v3.192c0,0.24,0.014,0.416,0.042,0.527
		c0.028,0.112,0.122,0.168,0.282,0.168c0.088,0,0.192-0.021,0.312-0.06v0.791C20.251,109.08,20.008,109.133,19.696,109.133z
		 M18.268,106.006c-0.208,0.045-0.426,0.08-0.654,0.108c-0.228,0.028-0.458,0.06-0.69,0.097c-0.232,0.035-0.44,0.094-0.624,0.174
		c-0.185,0.08-0.334,0.193-0.45,0.342c-0.116,0.148-0.174,0.351-0.174,0.605c0,0.168,0.034,0.311,0.102,0.426
		c0.068,0.117,0.156,0.211,0.264,0.283c0.108,0.07,0.236,0.123,0.384,0.154c0.148,0.033,0.298,0.049,0.45,0.049
		c0.336,0,0.624-0.045,0.864-0.139c0.24-0.092,0.436-0.207,0.588-0.349c0.152-0.139,0.264-0.291,0.336-0.455
		c0.072-0.163,0.108-0.317,0.108-0.463v-1.043C18.644,105.893,18.476,105.963,18.268,106.006z"/>
	<path fill="#0072BC" d="M22.456,100.434V109h-1.021v-8.566H22.456z"/>
	<path fill="#0072BC" d="M25.12,100.434V109H24.1v-8.566H25.12z"/>
	<path fill="#0072BC" d="M-30.044,118.096v-0.898H-29v-0.924c0-0.504,0.146-0.887,0.438-1.146s0.718-0.391,1.278-0.391
		c0.096,0,0.206,0.008,0.33,0.022c0.124,0.017,0.234,0.041,0.33,0.072v0.889c-0.088-0.032-0.184-0.055-0.288-0.065
		c-0.104-0.012-0.2-0.019-0.288-0.019c-0.248,0-0.44,0.048-0.576,0.144c-0.136,0.098-0.204,0.281-0.204,0.553v0.863h1.2v0.899h-1.2
		v5.306H-29v-5.306L-30.044,118.096L-30.044,118.096z"/>
	<path fill="#0072BC" d="M-26.012,119.025c0.128-0.396,0.32-0.738,0.576-1.031c0.256-0.291,0.572-0.521,0.948-0.689
		s0.808-0.252,1.296-0.252c0.496,0,0.93,0.084,1.302,0.252s0.686,0.398,0.942,0.689c0.256,0.293,0.448,0.637,0.576,1.031
		c0.128,0.396,0.192,0.822,0.192,1.279c0,0.454-0.064,0.879-0.192,1.271c-0.128,0.393-0.32,0.733-0.576,1.026
		c-0.256,0.291-0.57,0.521-0.942,0.685c-0.372,0.163-0.806,0.245-1.302,0.245c-0.488,0-0.92-0.082-1.296-0.245
		c-0.376-0.164-0.692-0.394-0.948-0.685c-0.256-0.293-0.448-0.635-0.576-1.026c-0.128-0.392-0.192-0.816-0.192-1.271
		C-26.204,119.85-26.14,119.422-26.012,119.025z M-24.974,121.307c0.1,0.293,0.238,0.535,0.414,0.732
		c0.176,0.195,0.382,0.346,0.618,0.449c0.236,0.103,0.486,0.156,0.75,0.156c0.264,0,0.514-0.054,0.75-0.156
		c0.236-0.104,0.442-0.254,0.618-0.449c0.176-0.197,0.314-0.439,0.414-0.732c0.1-0.291,0.15-0.625,0.15-1.002s-0.05-0.71-0.15-1.002
		c-0.1-0.293-0.238-0.537-0.414-0.738c-0.176-0.198-0.382-0.352-0.618-0.455c-0.236-0.104-0.486-0.156-0.75-0.156
		c-0.264,0-0.514,0.052-0.75,0.156c-0.236,0.104-0.442,0.257-0.618,0.455c-0.176,0.201-0.314,0.445-0.414,0.738
		c-0.1,0.292-0.15,0.625-0.15,1.002S-25.074,121.016-24.974,121.307z"/>
	<path fill="#0072BC" d="M-18.056,117.195v1.309h0.024c0.248-0.504,0.552-0.875,0.912-1.115c0.36-0.24,0.816-0.352,1.368-0.336v1.08
		c-0.408,0-0.756,0.057-1.044,0.168s-0.521,0.275-0.696,0.492c-0.176,0.215-0.304,0.479-0.384,0.785
		c-0.08,0.309-0.12,0.662-0.12,1.063v2.76h-1.02v-6.203h0.96V117.195z"/>
	<path fill="#0072BC" d="M-9.165,123.4v-6.096h-2.208v-0.816c0.288,0,0.568-0.021,0.84-0.066c0.272-0.043,0.518-0.125,0.738-0.246
		c0.22-0.119,0.406-0.283,0.558-0.49c0.152-0.209,0.256-0.473,0.312-0.793h0.78v8.508H-9.165L-9.165,123.4z"/>
	<path fill="#0072BC" d="M-1.22,116.141c-0.248-0.231-0.576-0.348-0.984-0.348c-0.432,0-0.78,0.105-1.044,0.316
		c-0.264,0.213-0.47,0.479-0.618,0.805c-0.148,0.325-0.25,0.674-0.306,1.051c-0.056,0.375-0.088,0.729-0.096,1.057l0.024,0.023
		c0.24-0.393,0.538-0.676,0.894-0.854c0.356-0.176,0.766-0.265,1.23-0.265c0.408,0,0.774,0.07,1.098,0.212
		c0.324,0.139,0.596,0.334,0.816,0.582c0.22,0.247,0.39,0.538,0.51,0.875c0.12,0.336,0.18,0.7,0.18,1.092
		c0,0.313-0.048,0.637-0.144,0.973c-0.096,0.336-0.254,0.643-0.474,0.918c-0.22,0.275-0.512,0.504-0.876,0.684
		c-0.364,0.182-0.814,0.271-1.35,0.271c-0.632,0-1.14-0.128-1.524-0.385c-0.384-0.256-0.68-0.584-0.888-0.983
		s-0.346-0.84-0.414-1.319s-0.102-0.943-0.102-1.393c0-0.583,0.05-1.148,0.15-1.698c0.1-0.547,0.27-1.032,0.51-1.457
		c0.24-0.424,0.56-0.764,0.96-1.021c0.4-0.256,0.904-0.385,1.512-0.385c0.704,0,1.264,0.187,1.68,0.559s0.656,0.91,0.72,1.613h-1.02
		C-0.824,116.68-0.972,116.373-1.22,116.141z M-3.068,118.979c-0.216,0.101-0.4,0.236-0.552,0.408
		c-0.152,0.172-0.266,0.377-0.342,0.611c-0.076,0.236-0.114,0.486-0.114,0.75s0.04,0.512,0.12,0.744s0.194,0.432,0.342,0.6
		c0.148,0.168,0.332,0.303,0.552,0.402c0.22,0.101,0.47,0.15,0.75,0.15s0.526-0.051,0.738-0.15c0.212-0.1,0.39-0.238,0.534-0.414
		s0.254-0.378,0.33-0.605c0.076-0.229,0.114-0.467,0.114-0.715c0-0.264-0.034-0.514-0.102-0.75
		c-0.068-0.234-0.174-0.439-0.318-0.611s-0.324-0.311-0.54-0.414c-0.216-0.103-0.468-0.155-0.756-0.155
		S-2.852,118.879-3.068,118.979z"/>
	<path fill="#0072BC" d="M2.752,117.195v0.842h0.024c0.168-0.346,0.432-0.596,0.792-0.75c0.36-0.156,0.756-0.234,1.188-0.234
		c0.48,0,0.898,0.088,1.254,0.264c0.356,0.177,0.652,0.414,0.888,0.715c0.236,0.3,0.414,0.646,0.534,1.037
		c0.12,0.394,0.18,0.81,0.18,1.248c0,0.439-0.058,0.855-0.174,1.248c-0.116,0.394-0.292,0.734-0.528,1.025
		c-0.236,0.293-0.532,0.521-0.888,0.69c-0.356,0.168-0.771,0.252-1.242,0.252c-0.152,0-0.322-0.017-0.51-0.048
		c-0.188-0.032-0.374-0.084-0.558-0.156s-0.358-0.17-0.522-0.294s-0.302-0.278-0.414-0.462H2.752v3.191h-1.02v-8.567L2.752,117.195
		L2.752,117.195z M6.418,119.398c-0.076-0.275-0.192-0.521-0.348-0.738c-0.156-0.217-0.356-0.389-0.6-0.516
		c-0.244-0.129-0.53-0.192-0.858-0.192c-0.344,0-0.636,0.067-0.876,0.204c-0.24,0.137-0.436,0.314-0.588,0.533
		c-0.152,0.221-0.262,0.471-0.33,0.75c-0.068,0.28-0.102,0.563-0.102,0.854c0,0.305,0.036,0.598,0.108,0.881
		c0.072,0.285,0.186,0.535,0.342,0.75c0.156,0.217,0.358,0.391,0.606,0.521c0.248,0.133,0.548,0.199,0.9,0.199
		s0.646-0.068,0.882-0.205c0.236-0.135,0.426-0.314,0.57-0.539s0.248-0.48,0.312-0.769c0.064-0.289,0.096-0.584,0.096-0.889
		C6.532,119.957,6.494,119.674,6.418,119.398z"/>
	<path fill="#0072BC" d="M8.319,117.195h1.308l1.488,2.173l1.548-2.173h1.224l-2.136,2.856l2.4,3.349h-1.308l-1.728-2.568
		L9.388,123.4H8.151l2.328-3.265L8.319,117.195z"/>
	<path fill="#0072BC" d="M18.327,119.584v0.961h-3.468v-0.961H18.327z"/>
	<path fill="#0072BC" d="M22.18,123.4v-6.096h-2.208v-0.816c0.288,0,0.568-0.021,0.839-0.066c0.272-0.043,0.519-0.125,0.738-0.246
		c0.221-0.119,0.406-0.283,0.559-0.49c0.151-0.209,0.256-0.473,0.312-0.793h0.78v8.508H22.18L22.18,123.4z"/>
	<path fill="#0072BC" d="M26.259,116.705c0.112-0.369,0.286-0.688,0.522-0.955s0.529-0.479,0.882-0.629
		c0.353-0.152,0.752-0.229,1.2-0.229c0.367,0,0.714,0.053,1.037,0.162c0.324,0.106,0.606,0.264,0.847,0.467
		c0.239,0.205,0.43,0.459,0.569,0.763c0.141,0.304,0.211,0.655,0.211,1.056c0,0.377-0.059,0.709-0.174,0.996
		c-0.117,0.289-0.271,0.547-0.463,0.773c-0.191,0.228-0.412,0.436-0.66,0.619c-0.248,0.183-0.504,0.358-0.768,0.526
		c-0.264,0.16-0.527,0.318-0.792,0.476c-0.264,0.155-0.506,0.321-0.726,0.498c-0.221,0.176-0.408,0.364-0.564,0.569
		c-0.156,0.203-0.258,0.438-0.306,0.701h4.368v0.899h-5.557c0.041-0.504,0.131-0.934,0.271-1.289
		c0.14-0.356,0.317-0.666,0.534-0.932c0.216-0.264,0.459-0.494,0.731-0.695c0.271-0.198,0.556-0.387,0.853-0.563
		c0.359-0.224,0.676-0.43,0.947-0.617c0.272-0.187,0.498-0.379,0.678-0.569c0.181-0.191,0.316-0.4,0.408-0.625
		c0.092-0.224,0.139-0.482,0.139-0.779c0-0.23-0.045-0.441-0.133-0.63s-0.205-0.351-0.354-0.485
		c-0.148-0.137-0.322-0.24-0.521-0.313c-0.201-0.072-0.412-0.107-0.637-0.107c-0.296,0-0.55,0.063-0.762,0.186
		c-0.212,0.125-0.387,0.287-0.521,0.486c-0.137,0.199-0.234,0.426-0.295,0.678c-0.06,0.252-0.086,0.506-0.078,0.763h-1.02
		C26.104,117.473,26.146,117.072,26.259,116.705z"/>
	<path fill="#0072BC" d="M32.799,118.252c0.016-0.336,0.057-0.664,0.12-0.982c0.063-0.319,0.156-0.625,0.276-0.912
		c0.119-0.289,0.283-0.541,0.492-0.756c0.207-0.217,0.47-0.389,0.785-0.518c0.316-0.127,0.694-0.191,1.135-0.191
		c0.439,0,0.817,0.064,1.134,0.191c0.315,0.129,0.577,0.301,0.786,0.518c0.207,0.215,0.371,0.467,0.492,0.756
		c0.119,0.287,0.211,0.593,0.275,0.912c0.064,0.318,0.104,0.646,0.12,0.982s0.024,0.66,0.024,0.973c0,0.313-0.008,0.637-0.024,0.973
		s-0.056,0.664-0.12,0.982c-0.064,0.32-0.156,0.623-0.275,0.906c-0.121,0.285-0.285,0.535-0.492,0.75
		c-0.209,0.217-0.469,0.387-0.78,0.51c-0.312,0.125-0.692,0.188-1.14,0.188c-0.44,0-0.818-0.063-1.135-0.188
		c-0.315-0.123-0.578-0.293-0.785-0.51c-0.209-0.215-0.373-0.465-0.492-0.75c-0.12-0.283-0.213-0.586-0.276-0.906
		c-0.063-0.318-0.104-0.646-0.12-0.982s-0.023-0.659-0.023-0.973C32.775,118.912,32.783,118.588,32.799,118.252z M33.885,120.287
		c0.02,0.396,0.084,0.768,0.192,1.115c0.108,0.347,0.282,0.643,0.522,0.882c0.239,0.239,0.575,0.36,1.008,0.36
		c0.432,0,0.768-0.121,1.008-0.36s0.414-0.534,0.521-0.882c0.108-0.348,0.172-0.721,0.192-1.115c0.021-0.396,0.03-0.755,0.03-1.074
		c0-0.209-0.002-0.438-0.006-0.689s-0.024-0.504-0.061-0.756c-0.036-0.254-0.088-0.498-0.156-0.738
		c-0.068-0.239-0.168-0.45-0.3-0.631c-0.132-0.18-0.298-0.325-0.498-0.438c-0.2-0.111-0.444-0.168-0.731-0.168
		c-0.289,0-0.532,0.057-0.732,0.168s-0.366,0.258-0.498,0.438c-0.132,0.181-0.232,0.392-0.3,0.631
		c-0.068,0.24-0.12,0.484-0.156,0.738c-0.036,0.252-0.056,0.504-0.06,0.756s-0.006,0.48-0.006,0.689
		C33.855,119.532,33.865,119.891,33.885,120.287z"/>
	<path fill="#0072BC" d="M40.768,117.195v0.842h0.024c0.168-0.346,0.433-0.596,0.792-0.75c0.359-0.156,0.756-0.234,1.188-0.234
		c0.48,0,0.898,0.088,1.254,0.264c0.356,0.177,0.652,0.414,0.889,0.715c0.236,0.3,0.414,0.646,0.534,1.037
		c0.12,0.394,0.18,0.81,0.18,1.248c0,0.439-0.058,0.855-0.174,1.248c-0.116,0.394-0.292,0.734-0.528,1.025
		c-0.236,0.293-0.531,0.521-0.888,0.69c-0.356,0.168-0.771,0.252-1.242,0.252c-0.151,0-0.321-0.017-0.51-0.048
		c-0.188-0.032-0.374-0.084-0.558-0.156c-0.185-0.072-0.358-0.17-0.522-0.294s-0.302-0.278-0.414-0.462h-0.024v3.191h-1.02v-8.567
		L40.768,117.195L40.768,117.195z M44.434,119.398c-0.076-0.275-0.191-0.521-0.348-0.738s-0.355-0.389-0.6-0.516
		c-0.244-0.129-0.53-0.192-0.858-0.192c-0.344,0-0.636,0.067-0.876,0.204s-0.436,0.314-0.588,0.533
		c-0.152,0.221-0.262,0.471-0.33,0.75c-0.068,0.28-0.102,0.563-0.102,0.854c0,0.305,0.035,0.598,0.107,0.881
		c0.072,0.285,0.186,0.535,0.342,0.75c0.156,0.217,0.358,0.391,0.606,0.521c0.248,0.133,0.548,0.199,0.899,0.199
		c0.353,0,0.646-0.068,0.883-0.205c0.236-0.135,0.426-0.314,0.57-0.539c0.144-0.225,0.248-0.48,0.312-0.769
		c0.063-0.289,0.096-0.584,0.096-0.889C44.547,119.957,44.509,119.674,44.434,119.398z"/>
	<path fill="#0072BC" d="M46.335,117.195h1.308l1.488,2.173l1.549-2.173h1.223l-2.135,2.856l2.399,3.349h-1.308l-1.729-2.568
		l-1.729,2.568h-1.235l2.328-3.265L46.335,117.195z"/>
</g>
<g>
	<path fill="#0072BC" d="M203.734,100.432v7.607h4.537V109h-5.676v-8.568H203.734z"/>
	<path fill="#0072BC" d="M213.863,109.131c-0.264,0-0.475-0.072-0.631-0.221c-0.155-0.148-0.233-0.391-0.233-0.727
		c-0.28,0.336-0.606,0.577-0.978,0.727c-0.373,0.146-0.774,0.221-1.207,0.221c-0.279,0-0.543-0.029-0.791-0.09
		s-0.467-0.16-0.654-0.299c-0.188-0.141-0.336-0.32-0.443-0.541c-0.109-0.221-0.162-0.486-0.162-0.799
		c0-0.352,0.061-0.639,0.18-0.863s0.277-0.405,0.475-0.545c0.195-0.141,0.42-0.246,0.672-0.318s0.512-0.133,0.773-0.18
		c0.279-0.057,0.547-0.1,0.799-0.127s0.475-0.067,0.666-0.119c0.191-0.053,0.344-0.129,0.456-0.229
		c0.11-0.101,0.168-0.246,0.168-0.438c0-0.226-0.042-0.403-0.126-0.541c-0.084-0.135-0.192-0.239-0.324-0.312
		c-0.132-0.071-0.279-0.121-0.443-0.145s-0.326-0.037-0.486-0.037c-0.432,0-0.791,0.083-1.079,0.246
		c-0.288,0.164-0.444,0.475-0.468,0.932h-1.021c0.018-0.385,0.098-0.709,0.24-0.973s0.336-0.479,0.574-0.643
		c0.24-0.164,0.518-0.281,0.828-0.354c0.313-0.071,0.642-0.108,0.984-0.108c0.28,0,0.559,0.021,0.834,0.061
		c0.276,0.041,0.526,0.123,0.75,0.246c0.225,0.125,0.404,0.299,0.54,0.521c0.136,0.224,0.204,0.518,0.204,0.877v3.19
		c0,0.24,0.014,0.416,0.042,0.529c0.028,0.11,0.122,0.168,0.282,0.168c0.088,0,0.191-0.021,0.313-0.062v0.793
		C214.419,109.08,214.176,109.131,213.863,109.131z M212.436,106.006c-0.209,0.044-0.426,0.08-0.653,0.107
		c-0.229,0.027-0.459,0.061-0.69,0.096c-0.23,0.037-0.439,0.096-0.624,0.174c-0.184,0.08-0.334,0.195-0.448,0.344
		c-0.117,0.146-0.174,0.351-0.174,0.605c0,0.168,0.032,0.311,0.102,0.426c0.066,0.115,0.156,0.209,0.264,0.281
		s0.236,0.125,0.385,0.156c0.147,0.031,0.297,0.049,0.449,0.049c0.336,0,0.624-0.047,0.864-0.139
		c0.239-0.092,0.437-0.209,0.588-0.349c0.151-0.141,0.265-0.293,0.336-0.457c0.071-0.163,0.108-0.317,0.108-0.461v-1.045
		C212.811,105.893,212.643,105.961,212.436,106.006z"/>
	<path fill="#0072BC" d="M216.467,102.795v1.309h0.023c0.248-0.504,0.553-0.875,0.912-1.115c0.359-0.239,0.815-0.353,1.369-0.336
		v1.08c-0.408,0-0.756,0.056-1.045,0.168c-0.287,0.111-0.521,0.275-0.695,0.492c-0.176,0.215-0.305,0.478-0.385,0.785
		c-0.08,0.309-0.119,0.662-0.119,1.063V109h-1.021v-6.205H216.467z"/>
	<path fill="#0072BC" d="M223.859,110.752c-0.465,0.504-1.192,0.756-2.185,0.756c-0.289,0-0.582-0.031-0.883-0.096
		c-0.3-0.064-0.571-0.168-0.815-0.313c-0.244-0.146-0.445-0.332-0.605-0.564s-0.248-0.516-0.264-0.852h1.02
		c0.008,0.184,0.066,0.34,0.174,0.467c0.108,0.129,0.24,0.231,0.396,0.313s0.326,0.139,0.51,0.176
		c0.184,0.035,0.359,0.053,0.527,0.053c0.336,0,0.621-0.059,0.853-0.174s0.425-0.274,0.576-0.479
		c0.151-0.203,0.262-0.449,0.33-0.738c0.067-0.286,0.103-0.604,0.103-0.946v-0.408h-0.023c-0.178,0.385-0.442,0.666-0.799,0.846
		c-0.355,0.182-0.733,0.271-1.135,0.271c-0.464,0-0.867-0.084-1.211-0.252c-0.345-0.168-0.633-0.395-0.865-0.68
		c-0.23-0.283-0.406-0.615-0.521-0.996c-0.116-0.379-0.174-0.781-0.174-1.205c0-0.367,0.048-0.746,0.146-1.135
		c0.096-0.387,0.256-0.738,0.479-1.056c0.224-0.315,0.521-0.575,0.888-0.78c0.368-0.203,0.82-0.307,1.354-0.307
		c0.394,0,0.752,0.088,1.08,0.26s0.584,0.43,0.77,0.773h0.014v-0.89h0.959v5.677C224.555,109.486,224.322,110.248,223.859,110.752z
		 M222.557,107.961c0.236-0.139,0.426-0.322,0.57-0.551s0.25-0.486,0.318-0.774c0.066-0.288,0.102-0.575,0.102-0.864
		c0-0.271-0.031-0.539-0.096-0.805c-0.064-0.264-0.166-0.502-0.307-0.713c-0.141-0.213-0.322-0.383-0.545-0.51
		c-0.226-0.129-0.496-0.193-0.816-0.193c-0.328,0-0.608,0.063-0.84,0.188c-0.232,0.123-0.422,0.289-0.57,0.498
		c-0.148,0.207-0.256,0.447-0.324,0.72s-0.102,0.558-0.102,0.853c0,0.28,0.027,0.561,0.084,0.84c0.056,0.28,0.152,0.535,0.287,0.764
		c0.137,0.229,0.315,0.412,0.541,0.551c0.224,0.141,0.504,0.211,0.84,0.211S222.32,108.102,222.557,107.961z"/>
	<path fill="#0072BC" d="M230.482,108.604c-0.465,0.353-1.049,0.527-1.752,0.527c-0.496,0-0.926-0.08-1.289-0.238
		c-0.365-0.16-0.672-0.385-0.918-0.673c-0.248-0.288-0.436-0.632-0.56-1.032c-0.124-0.399-0.194-0.836-0.21-1.309
		c0-0.471,0.071-0.902,0.217-1.295c0.145-0.393,0.346-0.732,0.604-1.021s0.567-0.512,0.925-0.672c0.355-0.16,0.745-0.24,1.17-0.24
		c0.553,0,1.01,0.115,1.374,0.344c0.363,0.229,0.656,0.518,0.876,0.869c0.221,0.353,0.372,0.736,0.456,1.152
		s0.117,0.813,0.103,1.188h-4.645c-0.009,0.271,0.023,0.529,0.096,0.773s0.188,0.461,0.35,0.647
		c0.158,0.188,0.363,0.338,0.611,0.451c0.248,0.11,0.539,0.168,0.875,0.168c0.434,0,0.786-0.101,1.063-0.302
		c0.277-0.198,0.459-0.504,0.547-0.911h1.008C231.246,107.729,230.947,108.252,230.482,108.604z M230.236,104.619
		c-0.092-0.217-0.215-0.402-0.371-0.559c-0.156-0.155-0.342-0.279-0.553-0.371c-0.213-0.092-0.445-0.14-0.701-0.14
		c-0.266,0-0.504,0.048-0.715,0.14c-0.213,0.092-0.396,0.219-0.547,0.377c-0.15,0.16-0.271,0.348-0.359,0.559
		c-0.088,0.213-0.141,0.438-0.155,0.68h3.563C230.383,105.063,230.328,104.836,230.236,104.619z"/>
	<path fill="#0072BC" d="M233.459,102.795v1.309h0.023c0.248-0.504,0.553-0.875,0.912-1.115c0.358-0.239,0.815-0.353,1.367-0.336
		v1.08c-0.408,0-0.756,0.056-1.044,0.168c-0.288,0.111-0.521,0.275-0.696,0.492c-0.174,0.215-0.304,0.478-0.383,0.785
		c-0.08,0.309-0.121,0.662-0.121,1.063V109h-1.021v-6.205H233.459z"/>
	<path fill="#0072BC" d="M186.359,118.096v-0.9h1.043v-0.924c0-0.504,0.146-0.887,0.438-1.146c0.291-0.26,0.718-0.39,1.277-0.39
		c0.096,0,0.206,0.009,0.33,0.023c0.124,0.016,0.233,0.039,0.329,0.072v0.887c-0.088-0.031-0.184-0.053-0.287-0.064
		s-0.2-0.02-0.288-0.02c-0.248,0-0.438,0.049-0.576,0.145c-0.136,0.097-0.203,0.281-0.203,0.554v0.862h1.199v0.9h-1.199v5.305
		h-1.021v-5.305H186.359z"/>
	<path fill="#0072BC" d="M190.391,119.025c0.129-0.396,0.32-0.74,0.576-1.031c0.256-0.293,0.572-0.523,0.948-0.691
		s0.808-0.252,1.296-0.252c0.496,0,0.93,0.084,1.303,0.252c0.371,0.168,0.687,0.398,0.941,0.691
		c0.256,0.291,0.447,0.635,0.576,1.031c0.128,0.396,0.191,0.822,0.191,1.276c0,0.457-0.063,0.882-0.191,1.272
		c-0.129,0.392-0.32,0.734-0.576,1.025c-0.256,0.293-0.57,0.521-0.941,0.685c-0.373,0.164-0.807,0.246-1.303,0.246
		c-0.488,0-0.92-0.082-1.296-0.246s-0.692-0.392-0.948-0.685c-0.256-0.291-0.447-0.635-0.576-1.025
		c-0.127-0.393-0.19-0.815-0.19-1.272C190.199,119.848,190.264,119.422,190.391,119.025z M191.43,121.305
		c0.1,0.293,0.237,0.537,0.414,0.732c0.176,0.195,0.381,0.346,0.617,0.449c0.236,0.104,0.486,0.156,0.75,0.156
		s0.514-0.052,0.75-0.156c0.236-0.104,0.441-0.254,0.618-0.449c0.176-0.195,0.313-0.439,0.414-0.732
		c0.101-0.291,0.149-0.625,0.149-1.002c0-0.375-0.05-0.709-0.149-1.002c-0.101-0.291-0.238-0.537-0.414-0.736
		c-0.177-0.2-0.382-0.354-0.618-0.457c-0.236-0.103-0.486-0.155-0.75-0.155s-0.514,0.053-0.75,0.155
		c-0.236,0.104-0.441,0.257-0.617,0.457c-0.177,0.199-0.314,0.445-0.414,0.736c-0.101,0.293-0.15,0.627-0.15,1.002
		C191.279,120.68,191.329,121.014,191.43,121.305z"/>
	<path fill="#0072BC" d="M198.348,117.195v1.309h0.023c0.248-0.504,0.553-0.877,0.912-1.117c0.359-0.238,0.816-0.352,1.367-0.336
		v1.08c-0.407,0-0.756,0.057-1.043,0.168c-0.289,0.113-0.521,0.276-0.696,0.492c-0.177,0.217-0.304,0.479-0.384,0.787
		c-0.08,0.307-0.12,0.661-0.12,1.063v2.76h-1.021v-6.205H198.348L198.348,117.195z"/>
	<path fill="#0072BC" d="M207.238,123.398v-6.097h-2.207v-0.815c0.287,0,0.566-0.021,0.84-0.064
		c0.271-0.045,0.518-0.127,0.738-0.246c0.219-0.121,0.404-0.283,0.558-0.492c0.151-0.207,0.256-0.473,0.312-0.791h0.78v8.508h-1.021
		V123.398z"/>
	<path fill="#0072BC" d="M211.318,116.703c0.113-0.367,0.287-0.686,0.522-0.953c0.235-0.27,0.529-0.479,0.882-0.631
		c0.353-0.151,0.752-0.229,1.2-0.229c0.367,0,0.714,0.055,1.037,0.161c0.324,0.109,0.606,0.265,0.847,0.47
		c0.239,0.203,0.43,0.457,0.569,0.762c0.142,0.305,0.211,0.656,0.211,1.057c0,0.375-0.06,0.707-0.175,0.996
		c-0.116,0.287-0.271,0.545-0.462,0.773c-0.191,0.228-0.412,0.434-0.66,0.617c-0.248,0.185-0.504,0.36-0.769,0.528
		c-0.264,0.16-0.527,0.317-0.793,0.474c-0.264,0.155-0.506,0.322-0.725,0.498c-0.221,0.176-0.408,0.366-0.564,0.569
		c-0.155,0.205-0.258,0.438-0.307,0.703h4.369v0.899h-5.557c0.039-0.504,0.13-0.936,0.27-1.291c0.141-0.354,0.318-0.666,0.534-0.93
		s0.46-0.496,0.731-0.695c0.271-0.2,0.557-0.389,0.853-0.563c0.36-0.226,0.677-0.431,0.948-0.619
		c0.271-0.188,0.498-0.377,0.678-0.569c0.18-0.191,0.316-0.398,0.408-0.623c0.092-0.226,0.139-0.484,0.139-0.779
		c0-0.232-0.045-0.443-0.133-0.631c-0.088-0.188-0.206-0.35-0.354-0.486c-0.148-0.135-0.322-0.24-0.522-0.313
		c-0.2-0.071-0.412-0.107-0.636-0.107c-0.297,0-0.551,0.063-0.762,0.188c-0.214,0.123-0.388,0.285-0.522,0.484
		c-0.136,0.201-0.233,0.428-0.294,0.68s-0.086,0.506-0.078,0.762h-1.02C211.163,117.471,211.207,117.07,211.318,116.703z"/>
	<path fill="#0072BC" d="M217.859,118.252c0.016-0.336,0.056-0.664,0.119-0.984c0.063-0.319,0.155-0.623,0.275-0.912
		c0.12-0.287,0.284-0.539,0.492-0.756s0.47-0.389,0.786-0.516c0.315-0.129,0.692-0.191,1.134-0.191s0.816,0.063,1.134,0.191
		c0.316,0.127,0.578,0.299,0.786,0.516s0.372,0.469,0.492,0.756c0.12,0.289,0.212,0.593,0.275,0.912
		c0.063,0.32,0.104,0.648,0.119,0.984c0.018,0.336,0.024,0.66,0.024,0.973c0,0.312-0.008,0.635-0.024,0.971
		c-0.016,0.337-0.056,0.664-0.119,0.984s-0.155,0.622-0.275,0.906c-0.12,0.283-0.284,0.533-0.492,0.75
		c-0.208,0.215-0.468,0.387-0.779,0.51c-0.313,0.123-0.691,0.187-1.141,0.187c-0.439,0-0.816-0.063-1.134-0.187
		c-0.316-0.123-0.578-0.295-0.786-0.51c-0.208-0.217-0.372-0.467-0.492-0.75c-0.12-0.284-0.212-0.586-0.275-0.906
		s-0.104-0.647-0.119-0.984c-0.018-0.336-0.024-0.659-0.024-0.971C217.835,118.912,217.843,118.588,217.859,118.252z
		 M218.945,120.285c0.02,0.396,0.084,0.768,0.191,1.115c0.107,0.35,0.281,0.643,0.521,0.883c0.238,0.24,0.574,0.359,1.008,0.359
		s0.77-0.119,1.009-0.359s0.413-0.533,0.521-0.883c0.107-0.349,0.173-0.719,0.191-1.115c0.021-0.396,0.03-0.754,0.03-1.074
		c0-0.207-0.002-0.438-0.006-0.689c-0.005-0.252-0.024-0.504-0.06-0.756c-0.037-0.252-0.088-0.498-0.156-0.738
		c-0.068-0.239-0.168-0.448-0.301-0.629c-0.131-0.182-0.297-0.325-0.498-0.438c-0.199-0.11-0.443-0.168-0.731-0.168
		s-0.532,0.058-0.731,0.168c-0.201,0.113-0.367,0.258-0.498,0.438c-0.133,0.181-0.231,0.39-0.301,0.629
		c-0.068,0.24-0.119,0.486-0.156,0.738c-0.035,0.252-0.056,0.504-0.06,0.756s-0.006,0.482-0.006,0.689
		C218.915,119.531,218.925,119.891,218.945,120.285z"/>
	<path fill="#0072BC" d="M225.827,117.195v0.84h0.024c0.168-0.344,0.432-0.594,0.791-0.75s0.756-0.234,1.188-0.234
		c0.479,0,0.896,0.09,1.254,0.266c0.355,0.177,0.65,0.414,0.889,0.713c0.235,0.302,0.414,0.646,0.533,1.039
		c0.12,0.392,0.182,0.808,0.182,1.248c0,0.439-0.06,0.855-0.176,1.248c-0.115,0.392-0.291,0.732-0.527,1.025
		c-0.235,0.291-0.531,0.521-0.887,0.689c-0.357,0.168-0.771,0.252-1.242,0.252c-0.152,0-0.322-0.016-0.512-0.049
		c-0.189-0.031-0.373-0.084-0.558-0.154c-0.185-0.072-0.358-0.17-0.521-0.295c-0.164-0.123-0.304-0.277-0.414-0.463h-0.024v3.193
		h-1.021v-8.568H225.827z M229.493,119.396c-0.076-0.275-0.192-0.521-0.349-0.737c-0.158-0.216-0.355-0.388-0.601-0.517
		c-0.245-0.127-0.53-0.191-0.856-0.191c-0.346,0-0.638,0.068-0.877,0.204c-0.24,0.136-0.437,0.313-0.588,0.534
		c-0.152,0.221-0.263,0.471-0.33,0.75c-0.068,0.279-0.103,0.563-0.103,0.852c0,0.305,0.036,0.6,0.106,0.883
		c0.072,0.283,0.188,0.533,0.342,0.75c0.156,0.217,0.359,0.391,0.607,0.521c0.247,0.133,0.547,0.197,0.899,0.197
		s0.646-0.066,0.882-0.203s0.426-0.316,0.57-0.541c0.144-0.224,0.248-0.479,0.312-0.769c0.063-0.287,0.097-0.584,0.097-0.887
		C229.607,119.955,229.568,119.674,229.493,119.396z"/>
	<path fill="#0072BC" d="M231.395,117.195h1.31l1.487,2.172l1.548-2.172h1.225l-2.137,2.854l2.399,3.349h-1.309l-1.729-2.566
		l-1.728,2.566h-1.235l2.328-3.265L231.395,117.195z"/>
	<path fill="#0072BC" d="M247.295,119.955v0.816h-2.615v2.627h-0.816v-2.627h-2.615v-0.816h2.615v-2.627h0.816v2.627H247.295z"/>
</g>
<path fill="#FFFFFF" d="M20,4.113c-8.995,0-16.289,7.294-16.289,16.291c0,7.196,4.667,13.301,11.141,15.456
	c0.814,0.148,1.112-0.354,1.112-0.785c0-0.387-0.014-1.411-0.022-2.771c-4.531,0.984-5.487-2.184-5.487-2.184
	c-0.741-1.882-1.809-2.383-1.809-2.383c-1.479-1.012,0.112-0.99,0.112-0.99c1.635,0.115,2.495,1.68,2.495,1.68
	c1.453,2.488,3.813,1.771,4.741,1.354c0.148-1.053,0.569-1.771,1.034-2.178c-3.617-0.411-7.42-1.81-7.42-8.05
	c0-1.779,0.635-3.232,1.677-4.371c-0.167-0.412-0.727-2.068,0.16-4.312c0,0,1.368-0.438,4.479,1.67
	c1.299-0.36,2.693-0.543,4.078-0.549c1.384,0.006,2.776,0.188,4.078,0.549c3.11-2.108,4.476-1.67,4.476-1.67
	c0.889,2.242,0.33,3.897,0.161,4.312c1.044,1.139,1.675,2.592,1.675,4.371c0,6.257-3.81,7.634-7.438,8.037
	c0.585,0.504,1.106,1.497,1.106,3.018c0,2.178-0.021,3.935-0.021,4.469c0,0.436,0.293,0.941,1.12,0.783
	c6.467-2.158,11.13-8.26,11.13-15.454C36.291,11.407,28.997,4.113,20,4.113z"/>
<g>
	<path fill="#FFFFFF" d="M218.711,231.527c-33.348,0-60.388,27.035-60.388,60.388c0,26.681,17.303,49.315,41.297,57.302
		c3.019,0.559,4.126-1.311,4.126-2.904c0-1.439-0.057-6.197-0.082-11.244c-16.801,3.654-20.346-7.125-20.346-7.125
		c-2.746-6.979-6.705-8.836-6.705-8.836c-5.479-3.748,0.414-3.67,0.414-3.67c6.063,0.426,9.257,6.224,9.257,6.224
		c5.386,9.231,14.127,6.563,17.573,5.021c0.541-3.902,2.105-6.568,3.834-8.076c-13.414-1.525-27.515-6.705-27.515-29.844
		c0-6.593,2.359-11.979,6.224-16.209c-0.627-1.521-2.694-7.662,0.584-15.98c0,0,5.072-1.622,16.611,6.189
		c4.816-1.338,9.982-2.009,15.114-2.031c5.132,0.022,10.302,0.693,15.128,2.031c11.526-7.813,16.59-6.189,16.59-6.189
		c3.287,8.318,1.221,14.46,0.594,15.98c3.871,4.229,6.215,9.616,6.215,16.209c0,23.194-14.127,28.301-27.574,29.797
		c2.166,1.873,4.096,5.549,4.096,11.183c0,8.079-0.068,14.583-0.068,16.571c0,1.607,1.086,3.49,4.146,2.897
		c23.98-7.994,41.264-30.622,41.264-57.294C279.1,258.563,252.063,231.527,218.711,231.527z"/>
	<path fill="#FFFFFF" d="M181.195,318.23c-0.133,0.301-0.605,0.391-1.035,0.185c-0.438-0.197-0.684-0.606-0.542-0.907
		c0.13-0.309,0.603-0.395,1.04-0.188C181.098,317.518,181.348,317.93,181.195,318.23L181.195,318.23z"/>
	<path fill="#FFFFFF" d="M183.643,320.959c-0.289,0.268-0.853,0.143-1.233-0.279c-0.396-0.421-0.47-0.984-0.177-1.255
		c0.297-0.267,0.843-0.142,1.238,0.279C183.865,320.13,183.941,320.688,183.643,320.959L183.643,320.959z"/>
	<path fill="#FFFFFF" d="M186.021,324.438c-0.369,0.258-0.976,0.017-1.35-0.521c-0.37-0.537-0.37-1.182,0.01-1.439
		c0.373-0.258,0.971-0.024,1.35,0.508C186.4,323.529,186.4,324.174,186.021,324.438L186.021,324.438z"/>
	<path fill="#FFFFFF" d="M189.284,327.797c-0.331,0.365-1.036,0.268-1.552-0.23c-0.528-0.486-0.676-1.178-0.344-1.543
		c0.336-0.365,1.045-0.264,1.563,0.23C189.479,326.74,189.637,327.436,189.284,327.797L189.284,327.797z"/>
	<path fill="#FFFFFF" d="M193.784,329.748c-0.146,0.473-0.825,0.688-1.509,0.486c-0.685-0.207-1.131-0.762-0.992-1.238
		c0.142-0.477,0.824-0.7,1.513-0.485C193.479,328.717,193.926,329.268,193.784,329.748L193.784,329.748z"/>
	<path fill="#FFFFFF" d="M198.727,330.109c0.018,0.498-0.563,0.91-1.281,0.92c-0.721,0.017-1.307-0.387-1.313-0.877
		c0-0.504,0.567-0.911,1.289-0.924C198.139,329.215,198.727,329.615,198.727,330.109L198.727,330.109z"/>
	<path fill="#FFFFFF" d="M203.325,329.327c0.086,0.485-0.413,0.983-1.126,1.116c-0.701,0.13-1.35-0.172-1.439-0.652
		c-0.087-0.498,0.422-0.997,1.121-1.126C202.596,328.541,203.234,328.833,203.325,329.327L203.325,329.327z"/>
</g>
<g>
	<g>
		<line fill="none" stroke="#1981BC" stroke-linecap="round" stroke-miterlimit="10" x1="93" y1="225.594" x2="93" y2="226.094"/>
		
			<line fill="none" stroke="#1981BC" stroke-linecap="round" stroke-miterlimit="10" stroke-dasharray="0.9999,1.9999" x1="93" y1="228.094" x2="93" y2="362.087"/>
		<line fill="none" stroke="#1981BC" stroke-linecap="round" stroke-miterlimit="10" x1="93" y1="363.087" x2="93" y2="363.587"/>
	</g>
</g>
<g>
	<path fill="#0072BC" d="M1.378,377.604c-0.38-0.276-0.866-0.414-1.458-0.414c-0.24,0-0.476,0.023-0.708,0.07
		c-0.232,0.049-0.438,0.129-0.618,0.24c-0.18,0.113-0.324,0.264-0.432,0.451S-2,378.373-2,378.652c0,0.264,0.078,0.479,0.234,0.643
		c0.156,0.164,0.364,0.298,0.624,0.4c0.26,0.104,0.554,0.191,0.882,0.26c0.328,0.066,0.662,0.143,1.002,0.221
		c0.34,0.08,0.674,0.176,1.002,0.283c0.328,0.107,0.622,0.254,0.882,0.438c0.26,0.185,0.468,0.416,0.624,0.695
		c0.156,0.281,0.234,0.633,0.234,1.057c0,0.457-0.102,0.847-0.306,1.17c-0.204,0.324-0.466,0.589-0.786,0.793
		c-0.32,0.203-0.678,0.353-1.074,0.443c-0.396,0.092-0.79,0.139-1.182,0.139c-0.48,0-0.934-0.061-1.362-0.18
		c-0.428-0.121-0.804-0.303-1.128-0.547s-0.58-0.557-0.768-0.937s-0.282-0.829-0.282-1.351h1.08c0,0.36,0.07,0.67,0.21,0.93
		c0.14,0.262,0.324,0.475,0.552,0.643s0.494,0.293,0.798,0.373c0.304,0.08,0.616,0.119,0.936,0.119c0.256,0,0.514-0.023,0.774-0.072
		c0.26-0.047,0.494-0.129,0.702-0.246c0.208-0.115,0.376-0.273,0.504-0.473c0.128-0.201,0.192-0.457,0.192-0.77
		c0-0.295-0.078-0.535-0.234-0.72c-0.156-0.185-0.364-0.334-0.624-0.45c-0.26-0.115-0.554-0.209-0.882-0.281
		s-0.662-0.146-1.002-0.224c-0.34-0.075-0.674-0.163-1.002-0.264s-0.623-0.231-0.882-0.396c-0.259-0.166-0.468-0.377-0.624-0.637
		c-0.156-0.26-0.234-0.586-0.234-0.979c0-0.433,0.088-0.807,0.264-1.123c0.176-0.314,0.41-0.574,0.702-0.779
		c0.292-0.203,0.624-0.355,0.996-0.455c0.372-0.102,0.754-0.15,1.146-0.15c0.44,0,0.848,0.053,1.224,0.156s0.706,0.268,0.99,0.492
		c0.284,0.225,0.508,0.506,0.672,0.846s0.254,0.746,0.27,1.219h-1.08C1.979,378.324,1.758,377.879,1.378,377.604z"/>
	<path fill="#0072BC" d="M5.656,378.797v0.912H5.68c0.464-0.705,1.132-1.057,2.004-1.057c0.384,0,0.732,0.08,1.044,0.24
		c0.312,0.159,0.532,0.432,0.66,0.815c0.208-0.336,0.482-0.597,0.822-0.78c0.34-0.185,0.714-0.275,1.122-0.275
		c0.312,0,0.594,0.033,0.846,0.102c0.252,0.068,0.468,0.175,0.648,0.318c0.18,0.145,0.32,0.33,0.42,0.559s0.15,0.502,0.15,0.822V385
		h-1.02v-4.066c0-0.192-0.017-0.373-0.048-0.541c-0.031-0.168-0.092-0.313-0.18-0.438c-0.088-0.125-0.21-0.223-0.366-0.295
		c-0.156-0.072-0.358-0.107-0.606-0.107c-0.504,0-0.9,0.145-1.188,0.432c-0.288,0.289-0.432,0.673-0.432,1.152V385h-1.02v-4.066
		c0-0.201-0.018-0.385-0.054-0.553s-0.098-0.314-0.186-0.438c-0.088-0.125-0.206-0.221-0.354-0.288
		c-0.148-0.068-0.338-0.103-0.57-0.103c-0.296,0-0.55,0.061-0.762,0.18c-0.212,0.121-0.384,0.265-0.516,0.433
		c-0.132,0.168-0.228,0.342-0.288,0.522c-0.06,0.18-0.09,0.33-0.09,0.449V385h-1.02v-6.203H5.656z"/>
	<path fill="#0072BC" d="M19.696,385.133c-0.264,0-0.474-0.074-0.63-0.223c-0.156-0.146-0.234-0.391-0.234-0.727
		c-0.28,0.336-0.606,0.578-0.978,0.727s-0.774,0.223-1.206,0.223c-0.28,0-0.544-0.029-0.792-0.09s-0.466-0.16-0.654-0.301
		s-0.336-0.319-0.444-0.539c-0.108-0.221-0.162-0.486-0.162-0.799c0-0.353,0.06-0.641,0.18-0.863
		c0.12-0.225,0.278-0.406,0.474-0.547s0.42-0.246,0.672-0.318c0.252-0.07,0.51-0.131,0.774-0.18c0.28-0.057,0.546-0.098,0.798-0.125
		c0.252-0.028,0.474-0.068,0.666-0.121c0.192-0.051,0.344-0.127,0.456-0.229c0.112-0.101,0.168-0.246,0.168-0.438
		c0-0.223-0.042-0.402-0.126-0.539s-0.192-0.24-0.324-0.313c-0.132-0.073-0.28-0.121-0.444-0.146
		c-0.164-0.022-0.326-0.034-0.486-0.034c-0.432,0-0.792,0.081-1.08,0.245c-0.288,0.164-0.444,0.474-0.468,0.931h-1.02
		c0.016-0.385,0.096-0.709,0.24-0.974c0.144-0.264,0.336-0.478,0.576-0.642c0.24-0.163,0.516-0.282,0.828-0.354
		c0.312-0.071,0.64-0.106,0.984-0.106c0.28,0,0.558,0.02,0.834,0.061c0.276,0.039,0.526,0.121,0.75,0.246
		c0.224,0.123,0.404,0.298,0.54,0.521c0.136,0.225,0.204,0.516,0.204,0.875v3.192c0,0.24,0.014,0.416,0.042,0.527
		c0.028,0.112,0.122,0.168,0.282,0.168c0.088,0,0.192-0.021,0.312-0.06v0.791C20.251,385.08,20.008,385.133,19.696,385.133z
		 M18.268,382.006c-0.208,0.045-0.426,0.08-0.654,0.108c-0.228,0.028-0.458,0.06-0.69,0.097c-0.232,0.035-0.44,0.094-0.624,0.174
		c-0.185,0.08-0.334,0.193-0.45,0.342c-0.116,0.148-0.174,0.351-0.174,0.605c0,0.168,0.034,0.311,0.102,0.426
		c0.068,0.117,0.156,0.211,0.264,0.283c0.108,0.07,0.236,0.123,0.384,0.154c0.148,0.033,0.298,0.049,0.45,0.049
		c0.336,0,0.624-0.045,0.864-0.139c0.24-0.092,0.436-0.207,0.588-0.349c0.152-0.139,0.264-0.291,0.336-0.454
		c0.072-0.164,0.108-0.318,0.108-0.464v-1.043C18.644,381.893,18.476,381.963,18.268,382.006z"/>
	<path fill="#0072BC" d="M22.456,376.434V385h-1.021v-8.566H22.456z"/>
	<path fill="#0072BC" d="M25.12,376.434V385H24.1v-8.566H25.12z"/>
	<path fill="#0072BC" d="M-30.044,394.096v-0.898H-29v-0.924c0-0.504,0.146-0.887,0.438-1.146s0.718-0.391,1.278-0.391
		c0.096,0,0.206,0.008,0.33,0.022c0.124,0.017,0.234,0.041,0.33,0.072v0.89c-0.088-0.033-0.184-0.056-0.288-0.066
		c-0.104-0.012-0.2-0.018-0.288-0.018c-0.248,0-0.44,0.047-0.576,0.144c-0.136,0.097-0.204,0.28-0.204,0.552v0.864h1.2v0.899h-1.2
		v5.305H-29v-5.305H-30.044L-30.044,394.096z"/>
	<path fill="#0072BC" d="M-26.012,395.025c0.128-0.396,0.32-0.738,0.576-1.031c0.256-0.291,0.572-0.521,0.948-0.689
		s0.808-0.252,1.296-0.252c0.496,0,0.93,0.084,1.302,0.252s0.686,0.398,0.942,0.689c0.256,0.293,0.448,0.637,0.576,1.031
		c0.128,0.396,0.192,0.822,0.192,1.278c0,0.455-0.064,0.88-0.192,1.271c-0.128,0.393-0.32,0.733-0.576,1.025
		c-0.256,0.292-0.57,0.521-0.942,0.686c-0.372,0.163-0.806,0.245-1.302,0.245c-0.488,0-0.92-0.082-1.296-0.245
		c-0.376-0.164-0.692-0.394-0.948-0.686s-0.448-0.634-0.576-1.025c-0.128-0.393-0.192-0.816-0.192-1.271
		C-26.204,395.85-26.14,395.422-26.012,395.025z M-24.974,397.307c0.1,0.292,0.238,0.535,0.414,0.732
		c0.176,0.195,0.382,0.346,0.618,0.449c0.236,0.103,0.486,0.155,0.75,0.155c0.264,0,0.514-0.053,0.75-0.155
		c0.236-0.104,0.442-0.254,0.618-0.449c0.176-0.197,0.314-0.44,0.414-0.732c0.1-0.292,0.15-0.626,0.15-1.002
		c0-0.377-0.05-0.709-0.15-1.002c-0.1-0.293-0.238-0.537-0.414-0.738c-0.176-0.198-0.382-0.352-0.618-0.455
		c-0.236-0.104-0.486-0.156-0.75-0.156c-0.264,0-0.514,0.052-0.75,0.156c-0.236,0.104-0.442,0.257-0.618,0.455
		c-0.176,0.201-0.314,0.445-0.414,0.738c-0.1,0.292-0.15,0.625-0.15,1.002C-25.124,396.681-25.074,397.015-24.974,397.307z"/>
	<path fill="#0072BC" d="M-18.056,393.195v1.309h0.024c0.248-0.504,0.552-0.875,0.912-1.115c0.36-0.24,0.816-0.352,1.368-0.336v1.08
		c-0.408,0-0.756,0.057-1.044,0.168s-0.521,0.275-0.696,0.492c-0.176,0.215-0.304,0.479-0.384,0.785
		c-0.08,0.309-0.12,0.662-0.12,1.063v2.761h-1.02v-6.204h0.96V393.195z"/>
	<path fill="#0072BC" d="M-9.165,399.4v-6.096h-2.208v-0.816c0.288,0,0.568-0.021,0.84-0.066c0.272-0.043,0.518-0.125,0.738-0.246
		c0.22-0.119,0.406-0.283,0.558-0.49c0.152-0.209,0.256-0.473,0.312-0.793h0.78v8.509L-9.165,399.4L-9.165,399.4z"/>
	<path fill="#0072BC" d="M-1.22,392.141c-0.248-0.231-0.576-0.348-0.984-0.348c-0.432,0-0.78,0.105-1.044,0.316
		c-0.264,0.213-0.47,0.479-0.618,0.805c-0.148,0.324-0.25,0.674-0.306,1.051c-0.056,0.375-0.088,0.729-0.096,1.057l0.024,0.023
		c0.24-0.393,0.538-0.676,0.894-0.854c0.356-0.176,0.766-0.265,1.23-0.265c0.408,0,0.774,0.07,1.098,0.211
		c0.324,0.14,0.596,0.335,0.816,0.582c0.22,0.248,0.39,0.539,0.51,0.875c0.12,0.337,0.18,0.701,0.18,1.093
		c0,0.313-0.048,0.637-0.144,0.973c-0.096,0.336-0.254,0.643-0.474,0.918c-0.22,0.275-0.512,0.504-0.876,0.684
		c-0.364,0.182-0.814,0.271-1.35,0.271c-0.632,0-1.14-0.128-1.524-0.385c-0.384-0.256-0.68-0.584-0.888-0.983
		s-0.346-0.84-0.414-1.32c-0.068-0.479-0.102-0.942-0.102-1.392c0-0.583,0.05-1.149,0.15-1.698c0.1-0.547,0.27-1.033,0.51-1.457
		c0.24-0.424,0.56-0.765,0.96-1.021s0.904-0.385,1.512-0.385c0.704,0,1.264,0.187,1.68,0.559c0.416,0.371,0.656,0.91,0.72,1.613
		h-1.02C-0.824,392.68-0.972,392.373-1.22,392.141z M-3.068,394.979c-0.216,0.101-0.4,0.236-0.552,0.408
		c-0.152,0.172-0.266,0.377-0.342,0.611c-0.076,0.236-0.114,0.486-0.114,0.75s0.04,0.512,0.12,0.744
		c0.08,0.231,0.194,0.432,0.342,0.6c0.148,0.168,0.332,0.303,0.552,0.402c0.22,0.101,0.47,0.149,0.75,0.149s0.526-0.05,0.738-0.149
		c0.212-0.101,0.39-0.238,0.534-0.414s0.254-0.378,0.33-0.605c0.076-0.229,0.114-0.467,0.114-0.715c0-0.264-0.034-0.514-0.102-0.75
		c-0.068-0.234-0.174-0.439-0.318-0.611s-0.324-0.311-0.54-0.414c-0.216-0.103-0.468-0.155-0.756-0.155
		S-2.852,394.879-3.068,394.979z"/>
	<path fill="#0072BC" d="M2.752,393.195v0.842h0.024c0.168-0.346,0.432-0.596,0.792-0.75c0.36-0.156,0.756-0.234,1.188-0.234
		c0.48,0,0.898,0.088,1.254,0.264c0.356,0.177,0.652,0.414,0.888,0.715c0.236,0.3,0.414,0.646,0.534,1.037
		c0.12,0.394,0.18,0.81,0.18,1.249c0,0.438-0.058,0.854-0.174,1.248c-0.116,0.393-0.292,0.733-0.528,1.024
		c-0.236,0.293-0.532,0.522-0.888,0.69s-0.771,0.252-1.242,0.252c-0.152,0-0.322-0.018-0.51-0.048
		c-0.188-0.032-0.374-0.084-0.558-0.156s-0.358-0.17-0.522-0.294s-0.302-0.278-0.414-0.462H2.752v3.19h-1.02v-8.567H2.752
		L2.752,393.195z M6.418,395.398c-0.076-0.275-0.192-0.521-0.348-0.738c-0.156-0.217-0.356-0.389-0.6-0.516
		c-0.244-0.129-0.53-0.192-0.858-0.192c-0.344,0-0.636,0.067-0.876,0.204c-0.24,0.137-0.436,0.314-0.588,0.533
		c-0.152,0.221-0.262,0.471-0.33,0.75c-0.068,0.281-0.102,0.563-0.102,0.854c0,0.304,0.036,0.598,0.108,0.881
		c0.072,0.285,0.186,0.535,0.342,0.75c0.156,0.217,0.358,0.392,0.606,0.522c0.248,0.132,0.548,0.198,0.9,0.198
		s0.646-0.068,0.882-0.204c0.236-0.137,0.426-0.315,0.57-0.54s0.248-0.48,0.312-0.769c0.064-0.289,0.096-0.584,0.096-0.889
		C6.532,395.957,6.494,395.674,6.418,395.398z"/>
	<path fill="#0072BC" d="M8.319,393.195h1.308l1.488,2.173l1.548-2.173h1.224l-2.136,2.856l2.4,3.349h-1.308l-1.728-2.568
		L9.388,399.4H8.151l2.328-3.265L8.319,393.195z"/>
	<path fill="#0072BC" d="M18.327,395.584v0.961h-3.468v-0.961H18.327z"/>
	<path fill="#0072BC" d="M22.18,399.4v-6.096h-2.208v-0.816c0.288,0,0.568-0.021,0.839-0.066c0.272-0.043,0.519-0.125,0.738-0.246
		c0.221-0.119,0.406-0.283,0.559-0.49c0.151-0.209,0.256-0.473,0.312-0.793h0.78v8.509L22.18,399.4L22.18,399.4z"/>
	<path fill="#0072BC" d="M26.259,392.705c0.112-0.369,0.286-0.688,0.522-0.955s0.529-0.479,0.882-0.629
		c0.353-0.152,0.752-0.229,1.2-0.229c0.367,0,0.714,0.053,1.037,0.162c0.324,0.106,0.606,0.264,0.847,0.467
		c0.239,0.205,0.43,0.459,0.569,0.763c0.141,0.304,0.211,0.655,0.211,1.056c0,0.377-0.059,0.709-0.174,0.996
		c-0.117,0.289-0.271,0.547-0.463,0.773c-0.191,0.228-0.412,0.436-0.66,0.619c-0.248,0.183-0.504,0.358-0.768,0.526
		c-0.264,0.16-0.527,0.318-0.792,0.476c-0.264,0.155-0.506,0.321-0.726,0.497c-0.221,0.177-0.408,0.365-0.564,0.57
		c-0.156,0.203-0.258,0.438-0.306,0.701h4.368v0.9h-5.557c0.041-0.505,0.131-0.935,0.271-1.29c0.14-0.356,0.317-0.666,0.534-0.932
		c0.216-0.264,0.459-0.495,0.731-0.694c0.271-0.199,0.556-0.389,0.853-0.564c0.359-0.224,0.676-0.431,0.947-0.617
		c0.272-0.187,0.498-0.379,0.678-0.569c0.181-0.191,0.316-0.4,0.408-0.625c0.092-0.224,0.139-0.482,0.139-0.779
		c0-0.23-0.045-0.441-0.133-0.631c-0.088-0.188-0.205-0.35-0.354-0.484c-0.148-0.137-0.322-0.24-0.521-0.313
		c-0.201-0.072-0.412-0.107-0.637-0.107c-0.296,0-0.55,0.063-0.762,0.186c-0.212,0.125-0.387,0.287-0.521,0.486
		c-0.137,0.199-0.234,0.426-0.295,0.678c-0.06,0.252-0.086,0.506-0.078,0.762h-1.02C26.104,393.473,26.146,393.072,26.259,392.705z"
		/>
	<path fill="#0072BC" d="M32.799,394.252c0.016-0.336,0.057-0.664,0.12-0.982c0.063-0.319,0.156-0.625,0.276-0.912
		c0.119-0.289,0.283-0.541,0.492-0.756c0.207-0.217,0.47-0.389,0.785-0.518c0.316-0.127,0.694-0.191,1.135-0.191
		c0.439,0,0.817,0.064,1.134,0.191c0.315,0.129,0.577,0.301,0.786,0.518c0.207,0.215,0.371,0.467,0.492,0.756
		c0.119,0.287,0.211,0.593,0.275,0.912c0.064,0.318,0.104,0.646,0.12,0.982s0.024,0.66,0.024,0.973c0,0.313-0.008,0.637-0.024,0.973
		s-0.056,0.664-0.12,0.982c-0.064,0.32-0.156,0.623-0.275,0.906c-0.121,0.285-0.285,0.535-0.492,0.75
		c-0.209,0.217-0.469,0.387-0.78,0.51c-0.312,0.125-0.692,0.188-1.14,0.188c-0.44,0-0.818-0.063-1.135-0.188
		c-0.315-0.123-0.578-0.293-0.785-0.51c-0.209-0.215-0.373-0.465-0.492-0.75c-0.12-0.283-0.213-0.586-0.276-0.906
		c-0.063-0.318-0.104-0.646-0.12-0.982s-0.023-0.659-0.023-0.973C32.775,394.912,32.783,394.588,32.799,394.252z M33.885,396.287
		c0.02,0.396,0.084,0.768,0.192,1.115c0.108,0.347,0.282,0.643,0.522,0.882c0.239,0.24,0.575,0.359,1.008,0.359
		c0.432,0,0.768-0.119,1.008-0.359c0.24-0.239,0.414-0.534,0.521-0.882c0.108-0.349,0.172-0.721,0.192-1.115
		c0.021-0.396,0.03-0.755,0.03-1.074c0-0.209-0.002-0.438-0.006-0.689s-0.024-0.504-0.061-0.756
		c-0.036-0.254-0.088-0.498-0.156-0.738c-0.068-0.239-0.168-0.45-0.3-0.631c-0.132-0.18-0.298-0.326-0.498-0.438
		s-0.444-0.168-0.731-0.168c-0.289,0-0.532,0.057-0.732,0.168s-0.366,0.258-0.498,0.438c-0.132,0.181-0.232,0.392-0.3,0.631
		c-0.068,0.24-0.12,0.484-0.156,0.738c-0.036,0.252-0.056,0.504-0.06,0.756s-0.006,0.48-0.006,0.689
		C33.855,395.532,33.865,395.891,33.885,396.287z"/>
	<path fill="#0072BC" d="M40.768,393.195v0.842h0.024c0.168-0.346,0.433-0.596,0.792-0.75c0.359-0.156,0.756-0.234,1.188-0.234
		c0.48,0,0.898,0.088,1.254,0.264c0.356,0.177,0.652,0.414,0.889,0.715c0.236,0.3,0.414,0.646,0.534,1.037
		c0.12,0.394,0.18,0.81,0.18,1.249c0,0.438-0.058,0.854-0.174,1.248c-0.116,0.393-0.292,0.733-0.528,1.024
		c-0.236,0.293-0.531,0.522-0.888,0.69s-0.771,0.252-1.242,0.252c-0.151,0-0.321-0.018-0.51-0.048
		c-0.188-0.032-0.374-0.084-0.558-0.156c-0.185-0.072-0.358-0.17-0.522-0.294s-0.302-0.278-0.414-0.462h-0.024v3.19h-1.02v-8.567
		H40.768L40.768,393.195z M44.434,395.398c-0.076-0.275-0.191-0.521-0.348-0.738s-0.355-0.389-0.6-0.516
		c-0.244-0.129-0.53-0.192-0.858-0.192c-0.344,0-0.636,0.067-0.876,0.204s-0.436,0.314-0.588,0.533
		c-0.152,0.221-0.262,0.471-0.33,0.75c-0.068,0.281-0.102,0.563-0.102,0.854c0,0.304,0.035,0.598,0.107,0.881
		c0.072,0.285,0.186,0.535,0.342,0.75c0.156,0.217,0.358,0.392,0.606,0.522c0.248,0.132,0.548,0.198,0.899,0.198
		c0.353,0,0.646-0.068,0.883-0.204c0.236-0.137,0.426-0.315,0.57-0.54c0.144-0.225,0.248-0.48,0.312-0.769
		c0.063-0.289,0.096-0.584,0.096-0.889C44.547,395.957,44.509,395.674,44.434,395.398z"/>
	<path fill="#0072BC" d="M46.335,393.195h1.308l1.488,2.173l1.549-2.173h1.223l-2.135,2.856l2.399,3.349h-1.308l-1.729-2.568
		l-1.729,2.568h-1.235l2.328-3.265L46.335,393.195z"/>
</g>
<g>
	<path fill="#0072BC" d="M203.734,376.432v7.607h4.537V385h-5.676v-8.568H203.734z"/>
	<path fill="#0072BC" d="M213.863,385.131c-0.264,0-0.475-0.072-0.631-0.221c-0.155-0.148-0.233-0.391-0.233-0.727
		c-0.28,0.336-0.606,0.578-0.978,0.727c-0.373,0.146-0.774,0.221-1.207,0.221c-0.279,0-0.543-0.029-0.791-0.09
		s-0.467-0.16-0.654-0.299c-0.188-0.141-0.336-0.32-0.443-0.541c-0.109-0.221-0.162-0.486-0.162-0.799
		c0-0.352,0.061-0.639,0.18-0.863s0.277-0.405,0.475-0.545c0.195-0.141,0.42-0.246,0.672-0.318s0.512-0.133,0.773-0.18
		c0.279-0.057,0.547-0.1,0.799-0.127s0.475-0.067,0.666-0.119c0.191-0.053,0.344-0.129,0.456-0.229
		c0.11-0.101,0.168-0.246,0.168-0.438c0-0.226-0.042-0.403-0.126-0.541c-0.084-0.135-0.192-0.239-0.324-0.312
		c-0.132-0.071-0.279-0.121-0.443-0.145s-0.326-0.037-0.486-0.037c-0.432,0-0.791,0.083-1.079,0.246
		c-0.288,0.164-0.444,0.475-0.468,0.932h-1.021c0.018-0.385,0.098-0.709,0.24-0.973s0.336-0.479,0.574-0.643
		c0.24-0.164,0.518-0.281,0.828-0.354c0.313-0.071,0.642-0.108,0.984-0.108c0.28,0,0.559,0.021,0.834,0.061
		c0.276,0.041,0.526,0.123,0.75,0.246c0.225,0.125,0.404,0.299,0.54,0.521c0.136,0.224,0.204,0.518,0.204,0.877v3.19
		c0,0.24,0.014,0.416,0.042,0.529c0.028,0.11,0.122,0.168,0.282,0.168c0.088,0,0.191-0.021,0.313-0.062v0.793
		C214.419,385.08,214.176,385.131,213.863,385.131z M212.436,382.006c-0.209,0.044-0.426,0.08-0.653,0.107
		c-0.229,0.027-0.459,0.061-0.69,0.096c-0.23,0.037-0.439,0.096-0.624,0.174c-0.184,0.08-0.334,0.195-0.448,0.344
		c-0.117,0.146-0.174,0.351-0.174,0.605c0,0.168,0.032,0.311,0.102,0.426c0.066,0.115,0.156,0.209,0.264,0.281
		s0.236,0.125,0.385,0.156c0.147,0.031,0.297,0.049,0.449,0.049c0.336,0,0.624-0.047,0.864-0.139
		c0.239-0.092,0.437-0.209,0.588-0.349c0.151-0.141,0.265-0.293,0.336-0.457c0.071-0.163,0.108-0.317,0.108-0.461v-1.045
		C212.811,381.893,212.643,381.961,212.436,382.006z"/>
	<path fill="#0072BC" d="M216.467,378.795v1.309h0.023c0.248-0.504,0.553-0.875,0.912-1.115c0.359-0.239,0.815-0.352,1.369-0.336
		v1.08c-0.408,0-0.756,0.056-1.045,0.168c-0.287,0.111-0.521,0.275-0.695,0.492c-0.176,0.215-0.305,0.478-0.385,0.785
		c-0.08,0.309-0.119,0.662-0.119,1.063V385h-1.021v-6.205H216.467z"/>
	<path fill="#0072BC" d="M223.859,386.752c-0.465,0.504-1.192,0.756-2.185,0.756c-0.289,0-0.582-0.031-0.883-0.096
		c-0.3-0.064-0.571-0.168-0.815-0.313c-0.244-0.146-0.445-0.332-0.605-0.564s-0.248-0.516-0.264-0.852h1.02
		c0.008,0.184,0.066,0.34,0.174,0.467c0.108,0.129,0.24,0.231,0.396,0.313s0.326,0.139,0.51,0.176
		c0.184,0.035,0.359,0.053,0.527,0.053c0.336,0,0.621-0.059,0.853-0.174s0.425-0.274,0.576-0.479
		c0.151-0.203,0.262-0.449,0.33-0.738c0.067-0.286,0.103-0.604,0.103-0.946v-0.408h-0.023c-0.178,0.385-0.442,0.666-0.799,0.846
		c-0.355,0.182-0.733,0.271-1.135,0.271c-0.464,0-0.867-0.084-1.211-0.252c-0.345-0.168-0.633-0.395-0.865-0.68
		c-0.23-0.283-0.406-0.615-0.521-0.996c-0.116-0.379-0.174-0.781-0.174-1.205c0-0.367,0.048-0.746,0.146-1.135
		c0.096-0.387,0.256-0.738,0.479-1.056c0.224-0.315,0.521-0.575,0.888-0.78c0.368-0.203,0.82-0.307,1.354-0.307
		c0.394,0,0.752,0.088,1.08,0.26s0.584,0.43,0.77,0.773h0.014v-0.89h0.959v5.677C224.555,385.486,224.322,386.248,223.859,386.752z
		 M222.557,383.961c0.236-0.139,0.426-0.322,0.57-0.551s0.25-0.486,0.318-0.773c0.066-0.289,0.102-0.576,0.102-0.865
		c0-0.271-0.031-0.539-0.096-0.805c-0.064-0.264-0.166-0.502-0.307-0.713c-0.141-0.213-0.322-0.383-0.545-0.51
		c-0.226-0.129-0.496-0.193-0.816-0.193c-0.328,0-0.608,0.063-0.84,0.188c-0.232,0.123-0.422,0.289-0.57,0.498
		c-0.148,0.207-0.256,0.447-0.324,0.72s-0.102,0.558-0.102,0.853c0,0.28,0.027,0.561,0.084,0.84
		c0.056,0.281,0.152,0.535,0.287,0.764c0.137,0.229,0.315,0.412,0.541,0.551c0.224,0.141,0.504,0.211,0.84,0.211
		S222.32,384.102,222.557,383.961z"/>
	<path fill="#0072BC" d="M230.482,384.604c-0.465,0.353-1.049,0.527-1.752,0.527c-0.496,0-0.926-0.08-1.289-0.238
		c-0.365-0.16-0.672-0.385-0.918-0.672c-0.248-0.289-0.436-0.633-0.56-1.033c-0.124-0.399-0.194-0.836-0.21-1.309
		c0-0.471,0.071-0.902,0.217-1.295c0.145-0.393,0.346-0.732,0.604-1.021s0.567-0.512,0.925-0.672c0.355-0.16,0.745-0.24,1.17-0.24
		c0.553,0,1.01,0.115,1.374,0.344c0.363,0.229,0.656,0.518,0.876,0.869c0.221,0.353,0.372,0.736,0.456,1.152
		s0.117,0.813,0.103,1.188h-4.645c-0.009,0.271,0.023,0.529,0.096,0.773s0.188,0.461,0.35,0.647
		c0.158,0.188,0.363,0.338,0.611,0.451c0.248,0.11,0.539,0.168,0.875,0.168c0.434,0,0.786-0.101,1.063-0.302
		c0.277-0.198,0.459-0.504,0.547-0.912h1.008C231.246,383.729,230.947,384.252,230.482,384.604z M230.236,380.619
		c-0.092-0.217-0.215-0.402-0.371-0.559s-0.342-0.279-0.553-0.371c-0.213-0.092-0.445-0.14-0.701-0.14
		c-0.266,0-0.504,0.048-0.715,0.14c-0.213,0.092-0.396,0.219-0.547,0.377c-0.15,0.16-0.271,0.348-0.359,0.559
		c-0.088,0.213-0.141,0.438-0.155,0.679h3.563C230.383,381.063,230.328,380.836,230.236,380.619z"/>
	<path fill="#0072BC" d="M233.459,378.795v1.309h0.023c0.248-0.504,0.553-0.875,0.912-1.115c0.358-0.239,0.815-0.352,1.367-0.336
		v1.08c-0.408,0-0.756,0.056-1.044,0.168c-0.288,0.111-0.521,0.275-0.696,0.492c-0.174,0.215-0.304,0.478-0.383,0.785
		c-0.08,0.309-0.121,0.662-0.121,1.063V385h-1.021v-6.205H233.459z"/>
	<path fill="#0072BC" d="M186.359,394.096v-0.9h1.043v-0.924c0-0.504,0.146-0.887,0.438-1.146c0.291-0.26,0.718-0.39,1.277-0.39
		c0.096,0,0.206,0.009,0.33,0.023c0.124,0.016,0.233,0.039,0.329,0.072v0.887c-0.088-0.031-0.184-0.053-0.287-0.064
		s-0.2-0.02-0.288-0.02c-0.248,0-0.438,0.049-0.576,0.145c-0.136,0.097-0.203,0.281-0.203,0.554v0.862h1.199v0.9h-1.199v5.305
		h-1.021v-5.305H186.359L186.359,394.096z"/>
	<path fill="#0072BC" d="M190.391,395.025c0.129-0.396,0.32-0.74,0.576-1.031c0.256-0.293,0.572-0.523,0.948-0.691
		s0.808-0.252,1.296-0.252c0.496,0,0.93,0.084,1.303,0.252c0.371,0.168,0.687,0.398,0.941,0.691
		c0.256,0.291,0.447,0.635,0.576,1.031c0.128,0.396,0.191,0.822,0.191,1.276c0,0.457-0.063,0.881-0.191,1.272
		c-0.129,0.392-0.32,0.733-0.576,1.025s-0.57,0.521-0.941,0.685c-0.373,0.164-0.807,0.246-1.303,0.246
		c-0.488,0-0.92-0.082-1.296-0.246s-0.692-0.393-0.948-0.685s-0.447-0.635-0.576-1.025c-0.127-0.393-0.19-0.815-0.19-1.272
		C190.199,395.848,190.264,395.422,190.391,395.025z M191.43,397.305c0.1,0.293,0.237,0.537,0.414,0.732
		c0.176,0.196,0.381,0.346,0.617,0.45c0.236,0.104,0.486,0.155,0.75,0.155s0.514-0.052,0.75-0.155
		c0.236-0.104,0.441-0.254,0.618-0.45c0.176-0.195,0.313-0.439,0.414-0.732c0.101-0.291,0.149-0.625,0.149-1.002
		c0-0.375-0.05-0.709-0.149-1.002c-0.101-0.291-0.238-0.537-0.414-0.736c-0.177-0.201-0.382-0.354-0.618-0.457
		c-0.236-0.103-0.486-0.155-0.75-0.155s-0.514,0.053-0.75,0.155c-0.236,0.104-0.441,0.256-0.617,0.457
		c-0.177,0.199-0.314,0.445-0.414,0.736c-0.101,0.293-0.15,0.627-0.15,1.002C191.279,396.68,191.329,397.014,191.43,397.305z"/>
	<path fill="#0072BC" d="M198.348,393.195v1.309h0.023c0.248-0.504,0.553-0.877,0.912-1.117c0.359-0.238,0.816-0.352,1.367-0.336
		v1.08c-0.407,0-0.756,0.057-1.043,0.168c-0.289,0.113-0.521,0.276-0.696,0.492c-0.177,0.217-0.304,0.479-0.384,0.787
		c-0.08,0.307-0.12,0.661-0.12,1.062v2.761h-1.021v-6.205H198.348L198.348,393.195z"/>
	<path fill="#0072BC" d="M207.238,399.399v-6.098h-2.207v-0.815c0.287,0,0.566-0.021,0.84-0.064
		c0.271-0.045,0.518-0.127,0.738-0.246c0.219-0.121,0.404-0.283,0.558-0.492c0.151-0.207,0.256-0.473,0.312-0.791h0.78v8.508
		L207.238,399.399L207.238,399.399z"/>
	<path fill="#0072BC" d="M211.318,392.703c0.113-0.367,0.287-0.686,0.522-0.953c0.235-0.27,0.529-0.479,0.882-0.631
		c0.353-0.151,0.752-0.229,1.2-0.229c0.367,0,0.714,0.055,1.037,0.161c0.324,0.109,0.606,0.265,0.847,0.47
		c0.239,0.203,0.43,0.457,0.569,0.762c0.142,0.305,0.211,0.656,0.211,1.057c0,0.375-0.06,0.707-0.175,0.996
		c-0.116,0.287-0.271,0.545-0.462,0.773c-0.191,0.228-0.412,0.434-0.66,0.617c-0.248,0.185-0.504,0.36-0.769,0.528
		c-0.264,0.16-0.527,0.317-0.793,0.475c-0.264,0.154-0.506,0.321-0.725,0.497c-0.221,0.177-0.408,0.366-0.564,0.569
		c-0.155,0.205-0.258,0.438-0.307,0.703h4.369v0.899h-5.557c0.039-0.505,0.13-0.936,0.27-1.29c0.141-0.355,0.318-0.666,0.534-0.931
		c0.216-0.264,0.46-0.496,0.731-0.695c0.271-0.2,0.557-0.389,0.853-0.563c0.36-0.226,0.677-0.431,0.948-0.619
		c0.271-0.188,0.498-0.377,0.678-0.569c0.18-0.191,0.316-0.398,0.408-0.623c0.092-0.226,0.139-0.484,0.139-0.779
		c0-0.232-0.045-0.443-0.133-0.631c-0.088-0.188-0.206-0.35-0.354-0.486c-0.148-0.135-0.322-0.24-0.522-0.313
		c-0.2-0.071-0.412-0.107-0.636-0.107c-0.297,0-0.551,0.063-0.762,0.188c-0.214,0.123-0.388,0.285-0.522,0.484
		c-0.136,0.201-0.233,0.428-0.294,0.68s-0.086,0.506-0.078,0.762h-1.02C211.163,393.471,211.207,393.07,211.318,392.703z"/>
	<path fill="#0072BC" d="M217.859,394.252c0.016-0.336,0.056-0.664,0.119-0.984c0.063-0.319,0.155-0.623,0.275-0.912
		c0.12-0.287,0.284-0.539,0.492-0.756s0.47-0.389,0.786-0.516c0.315-0.129,0.692-0.191,1.134-0.191s0.816,0.063,1.134,0.191
		c0.316,0.127,0.578,0.299,0.786,0.516s0.372,0.469,0.492,0.756c0.12,0.289,0.212,0.593,0.275,0.912
		c0.063,0.32,0.104,0.648,0.119,0.984c0.018,0.336,0.024,0.66,0.024,0.973c0,0.312-0.008,0.635-0.024,0.972
		c-0.016,0.336-0.056,0.664-0.119,0.983c-0.063,0.32-0.155,0.622-0.275,0.906c-0.12,0.283-0.284,0.533-0.492,0.75
		c-0.208,0.215-0.468,0.386-0.779,0.51c-0.313,0.123-0.691,0.187-1.141,0.187c-0.439,0-0.816-0.063-1.134-0.187
		c-0.316-0.124-0.578-0.295-0.786-0.51c-0.208-0.217-0.372-0.467-0.492-0.75c-0.12-0.284-0.212-0.586-0.275-0.906
		c-0.063-0.319-0.104-0.647-0.119-0.983c-0.018-0.337-0.024-0.66-0.024-0.972C217.835,394.912,217.843,394.588,217.859,394.252z
		 M218.945,396.285c0.02,0.396,0.084,0.768,0.191,1.116s0.281,0.642,0.521,0.882c0.238,0.24,0.574,0.359,1.008,0.359
		s0.77-0.119,1.009-0.359s0.413-0.533,0.521-0.882c0.107-0.35,0.173-0.721,0.191-1.116c0.021-0.396,0.03-0.754,0.03-1.074
		c0-0.207-0.002-0.438-0.006-0.689c-0.005-0.252-0.024-0.504-0.06-0.756c-0.037-0.252-0.088-0.498-0.156-0.738
		c-0.068-0.239-0.168-0.448-0.301-0.629c-0.131-0.182-0.297-0.326-0.498-0.438c-0.199-0.11-0.443-0.168-0.731-0.168
		s-0.532,0.058-0.731,0.168c-0.201,0.113-0.367,0.258-0.498,0.438c-0.133,0.181-0.231,0.39-0.301,0.629
		c-0.068,0.24-0.119,0.486-0.156,0.738c-0.035,0.252-0.056,0.504-0.06,0.756s-0.006,0.482-0.006,0.689
		C218.915,395.531,218.925,395.891,218.945,396.285z"/>
	<path fill="#0072BC" d="M225.827,393.195v0.84h0.024c0.168-0.344,0.432-0.594,0.791-0.75s0.756-0.234,1.188-0.234
		c0.479,0,0.896,0.09,1.254,0.266c0.355,0.177,0.65,0.414,0.889,0.713c0.235,0.302,0.414,0.646,0.533,1.039
		c0.12,0.392,0.182,0.808,0.182,1.248c0,0.439-0.06,0.855-0.176,1.248c-0.115,0.392-0.291,0.732-0.527,1.025
		c-0.235,0.291-0.531,0.521-0.887,0.689c-0.357,0.168-0.771,0.252-1.242,0.252c-0.152,0-0.322-0.017-0.512-0.048
		c-0.189-0.032-0.373-0.084-0.558-0.155c-0.185-0.072-0.358-0.17-0.521-0.295c-0.164-0.123-0.304-0.277-0.414-0.462h-0.024v3.191
		h-1.021v-8.567H225.827L225.827,393.195z M229.493,395.396c-0.076-0.275-0.192-0.521-0.349-0.737
		c-0.158-0.216-0.355-0.388-0.601-0.517c-0.245-0.127-0.53-0.191-0.856-0.191c-0.346,0-0.638,0.068-0.877,0.204
		c-0.24,0.136-0.437,0.313-0.588,0.534c-0.152,0.221-0.263,0.471-0.33,0.75c-0.068,0.279-0.103,0.563-0.103,0.852
		c0,0.305,0.036,0.599,0.106,0.883c0.072,0.283,0.188,0.533,0.342,0.75c0.156,0.216,0.359,0.391,0.607,0.521
		c0.247,0.133,0.547,0.197,0.899,0.197s0.646-0.066,0.882-0.203s0.426-0.316,0.57-0.54c0.144-0.225,0.248-0.479,0.312-0.77
		c0.063-0.287,0.097-0.584,0.097-0.887C229.607,395.955,229.568,395.674,229.493,395.396z"/>
	<path fill="#0072BC" d="M231.395,393.195h1.31l1.487,2.172l1.548-2.172h1.225l-2.137,2.854l2.399,3.35h-1.309l-1.729-2.567
		l-1.728,2.567h-1.235l2.328-3.266L231.395,393.195z"/>
	<path fill="#0072BC" d="M247.295,395.955v0.816h-2.615v2.628h-0.816v-2.628h-2.615v-0.816h2.615v-2.627h0.816v2.627H247.295z"/>
</g>
</svg>
